<svg preserveAspectRatio="none" width="100%" height="100%" overflow="visible" style="display: block;" viewBox="0 0 24.166 14.8708" fill="none" xmlns="http://www.w3.org/2000/svg">
<g id="g204">
<path id="path206" d="M4.87162 0C1.14497 0 -0.319938 0.446846 0.0575698 2.34759C0.124156 2.68328 0.273839 3.0861 0.455989 3.53459L4.93215 14.2116C5.09449 14.599 5.48245 14.873 5.86656 14.8708L10.0791 14.8505C10.6047 14.8477 10.8908 14.3398 10.6674 13.8087L6.85106 4.75847C6.77787 4.62419 6.75475 4.51248 6.73219 4.40022C6.63259 3.9077 6.99469 3.75086 8.12831 3.74921L12.331 3.74426C13.6682 3.74261 14.1062 3.96548 14.4518 4.74691L18.4531 14.1477C18.6176 14.5335 19.0045 14.8064 19.3853 14.8048L23.5131 14.7844C24.0343 14.7822 24.3133 14.276 24.0865 13.7471L19.6924 3.51203C18.4481 0.643854 16.7769 0 12.4124 0H4.87162Z" fill="var(--fill-0, #141212)"/>
</g>
</svg>
